<svg xmlns="http://www.w3.org/2000/svg" viewBox="0 0 784.34 115.65"><defs><style>.cls-1{fill:#fff;}</style></defs><g id="Capa_2" data-name="Capa 2"><g id="Capa_1-2" data-name="Capa 1"><path class="cls-1" d="M167.1,40.14,141,41.29c-.17-.79-.33-1.39-.43-2-.19-1.18-.28-2.38-.53-3.55-1-4.48-3.58-7.39-8.14-8.41a25.59,25.59,0,0,0-12.57.26,7.85,7.85,0,0,0-3.07,1.75,5.18,5.18,0,0,0,.08,7.83,24,24,0,0,0,5,3.22c4.23,2.07,8.58,3.9,12.81,6,4.52,2.21,9.09,4.37,13.4,6.94,8.6,5.12,12.63,12.89,12.93,22.87.47,16.11-11,27.64-22.15,32C131.1,111,123.6,111.8,116,111.6a55.55,55.55,0,0,1-20.1-4C83.4,102.38,77.22,92.81,76.21,79.64c-.2-2.68,0-5.4,0-8.43,8.75-.5,17.31-1.07,26.14-1.35.15,2,.22,3.71.42,5.43.22,1.89.49,3.79.87,5.66a6.45,6.45,0,0,0,3.63,4.5c4.92,2.6,16.65,2.73,21.51.16a9.86,9.86,0,0,0,2.3-1.7c3.19-3.21,2.86-7.33-1-9.76a68,68,0,0,0-7.42-3.89c-5.92-2.81-12-5.4-17.78-8.36a40.1,40.1,0,0,1-8.12-5.46C90.62,51.09,87.92,44,87.87,36c-.05-10.11,3.76-18.53,11.77-24.83A34.1,34.1,0,0,1,120.09,4c4.47-.14,9-.24,13.43,0,15.51.92,27.73,10,31.93,23.71A38.6,38.6,0,0,1,167.1,40.14Z"></path><path class="cls-1" d="M180.19,28.51c.23-1.31.36-2.24.56-3.16q1.88-9,3.78-18c.48-2.23.5-2.25,2.8-2.26q17.14,0,34.3,0c3.84,0,7.69,0,11.5.28A49.93,49.93,0,0,1,243,7c10.54,3.08,16.39,10.47,18,21.11,1.59,10.49-1.09,20.16-6.94,28.9-5.25,7.82-12.81,12.23-22,14.17-6.78,1.43-13.64,1.53-20.51,1.63-3.44,0-6.88,0-10.32,0h-2.76c-.6,2.78-1.16,5.34-1.7,7.89q-2.88,13.71-5.76,27.42c-.38,1.78-.41,1.83-2.17,1.83q-12,0-24,0a13.82,13.82,0,0,1-1.86-.26c4.21-20.11,8.4-40.08,12.64-60.27,1-.06,1.94-.15,2.87-.15,7.84,0,15.67.1,23.51,0,6.14-.11,12.3-.36,18.43-.82,4.85-.37,8.9-2.44,11.54-6.75a12.83,12.83,0,0,0,1.89-6.84c0-3.42-1.72-5.44-5.12-5.79a91,91,0,0,0-9.33-.49c-12.08-.05-24.15,0-36.22,0Z"></path><path class="cls-1" d="M39,109.8H11.44a19.28,19.28,0,0,1,.23-2Q18.33,76.16,25,44.55,28.81,26.63,32.6,8.72c.15-.71.35-1.4.44-2.11a1.63,1.63,0,0,1,2-1.56c.48,0,1,0,1.44,0H85.87c.93,0,1.86.09,2.95.14a19.27,19.27,0,0,1-.21,2.09q-2,9.72-4.06,19.45c-.44,2.08-.46,2.1-2.7,2.1-7.6,0-15.19,0-22.79,0H55.9C50.25,55.84,44.62,82.75,39,109.8Z"></path><path class="cls-1" d="M467.33,10.1c2.9,0,5.61-.1,8.3.07a3.67,3.67,0,0,1,2,1.45c4.57,5.43,9.09,10.92,13.63,16.38.5.6,1,1.17,1.94,2.2V10.58c2-.61,8.43-.67,11-.17V49.08c-2.95,0-5.8.08-8.64-.07-.62,0-1.28-.84-1.77-1.43-4.51-5.38-9-10.8-13.48-16.2-.5-.61-1-1.18-1.95-2.21-.1,1.23-.22,2-.22,2.69,0,4.79,0,9.58,0,14.37V49H467.33Z"></path><path class="cls-1" d="M630.15,29.59a20,20,0,0,1-16.92,20,26,26,0,0,1-12.09-.64,19.73,19.73,0,0,1-14.42-19,19.63,19.63,0,0,1,14.16-19.43,24.06,24.06,0,0,1,16.88.64A19.45,19.45,0,0,1,630.15,29.59ZM608.49,18.73c-6.09,0-10.49,4.61-10.43,11s4.37,10.8,10.34,10.84,10.33-4.48,10.4-10.75S614.57,18.75,608.49,18.73Z"></path><path class="cls-1" d="M410.25,37l8.11,11.88a14.31,14.31,0,0,1-1.81.25c-2.8,0-5.59-.05-8.39,0a2.79,2.79,0,0,1-2.73-1.47c-1.6-2.47-3.35-4.86-4.95-7.34a2.72,2.72,0,0,0-2.74-1.45c-1.26.1-2.53,0-4.09,0V49H382.53V10.31a14.3,14.3,0,0,1,1.82-.21c5.76,0,11.51,0,17.26,0a20,20,0,0,1,8.76,2.13c9.51,4.68,9.55,18.67,1.46,23.68C411.36,36.21,410.91,36.53,410.25,37ZM393.75,30c3,.09,5.78.32,8.52-.28a4.84,4.84,0,0,0,4-4.93c.1-2.73-1.23-4.77-3.72-5.41-2.86-.74-5.78-.51-8.81-.35Z"></path><path class="cls-1" d="M646.92,38.91v10H636.06c-.51-1.75-.73-33.37-.25-38.62a13.64,13.64,0,0,1,1.76-.22c5.83,0,11.66,0,17.49,0a19.54,19.54,0,0,1,8.74,2.2c9.34,4.72,9.38,18.52,1.38,23.55-.47.29-.92.61-1.65,1.09,2.69,3.93,5.34,7.83,8.29,12.14-4.12,0-7.69.06-11.25-.06-.62,0-1.35-.75-1.77-1.34-1.77-2.46-3.47-5-5.14-7.5a2.4,2.4,0,0,0-2.32-1.31C650,39,648.64,38.91,646.92,38.91Zm.16-8.83c3.13,0,6.13.38,9.07-.48a4.85,4.85,0,0,0,3.44-4.68,5.14,5.14,0,0,0-3-5.24c-2-.88-7.28-1.05-9.54-.3Z"></path><path class="cls-1" d="M432.36,88.35v17.89c-1.8.68-3.48.3-5.12.36s-3.34,0-4.95,0c-.61-1.9-.72-33.86-.11-36.73,2.53,0,5.14-.11,7.74.07.7.05,1.46.86,2,1.5,4.21,5,8.38,10.07,12.56,15.11.51.61,1,1.18,1.77,2,.56-2.2.24-4.15.29-6.07.06-2.07,0-4.15,0-6.23V70c3.44-.23,6.74-.15,10.21,0v36.57a28.42,28.42,0,0,0-3.9.14c-3.49.58-5.73-.87-7.8-3.65-3.33-4.49-7.07-8.66-10.65-13-.5-.61-1-1.21-1.54-1.81Z"></path><path class="cls-1" d="M784.34,88.2c-.46,10.31-7.18,17.56-16.8,18.93a24.29,24.29,0,0,1-11.11-.91,18.47,18.47,0,0,1-13-18.82c.46-10.3,7.86-16.26,15.59-17.83a22.19,22.19,0,0,1,15.15,1.92C781.08,75.15,784.35,81.06,784.34,88.2Zm-10.82,0c0-4.6-2.32-8.17-6.17-9.6a9.46,9.46,0,0,0-12.57,5.88c-1.91,6.07.57,11.79,5.9,13.6a7,7,0,0,0,.93.23C768.32,99.61,773.55,95.17,773.52,88.17Z"></path><path class="cls-1" d="M687.72,69a25.71,25.71,0,0,1,8.88,1.89,18.61,18.61,0,0,1,11.49,19.37c-1,10-8.55,15.52-16.16,16.84a24.08,24.08,0,0,1-11.82-.87c-6.59-2.16-13.83-8.66-12.8-20.13.72-8.06,7.23-15,15.67-16.5C684.54,69.27,686.14,69.14,687.72,69ZM678,88.62c0,.24,0,.88.1,1.51a9.67,9.67,0,0,0,18.75,1.78,11.65,11.65,0,0,0,0-7.29A9.43,9.43,0,0,0,686,78.12C681,79.06,678,82.85,678,88.62Z"></path><path class="cls-1" d="M712.21,10.21h30.41v8.6H723.34V25h16.93v8.56H723.36v6.72c6.58.15,13.16,0,19.91.1V49H712.38C711.91,47.2,711.75,14.13,712.21,10.21Z"></path><path class="cls-1" d="M447,10.09c5.78,13.05,11.45,25.84,17.23,38.9H452.56c-.8-1.93-1.64-3.82-2.35-5.75a2.14,2.14,0,0,0-2.3-1.61q-6.46.07-12.94,0a2.12,2.12,0,0,0-2.31,1.58C432,45.15,431.1,47,430.29,49H419c.24-.73.38-1.32.62-1.88,5.17-11.74,10.38-23.47,15.5-35.23A2.62,2.62,0,0,1,438,10.06C441,10.16,443.92,10.09,447,10.09ZM436.76,33h9.06c-.7-3.14-3.46-9.66-4.66-11Z"></path><path class="cls-1" d="M559.1,39v9.93H548.21c-.51-1.77-.59-36.09-.07-38.73.58,0,1.2-.12,1.82-.12,5.67,0,11.34,0,17,0A18.8,18.8,0,0,1,575.3,12a13.05,13.05,0,0,1,7.79,12.66,13,13,0,0,1-7.83,12.4A20,20,0,0,1,566.69,39C564.3,39,561.9,39,559.1,39Zm.52-20.19c-.64,1.84-.76,8.26-.23,11.18a31.32,31.32,0,0,0,8-.19,5,5,0,0,0,4.39-5.13,4.91,4.91,0,0,0-4.38-5.36C564.8,18.94,562.16,19,559.62,18.82Z"></path><path class="cls-1" d="M513.22,92.6v13.88H502.79V70c3.41-.18,6.78-.12,10.49,0V83.35H527V70c3.67-.19,7-.12,10.57,0v36.52H527.23c-.24-2.22-.08-4.51-.11-6.79s0-4.59,0-7.05Z"></path><path class="cls-1" d="M509.11,45.58c1.26-2.82,2.43-5.42,3.66-8.19,1,.46,1.72.84,2.5,1.2,4.21,1.93,8.56,3.06,13.24,2.27a7.58,7.58,0,0,0,1.17-.24c1.39-.46,2.27-1.43,2.21-2.52a2.58,2.58,0,0,0-2-2.42c-2.21-.69-4.44-1.27-6.67-1.89-2-.56-4.05-1-6-1.71-3.88-1.47-6.79-3.93-7.29-8.36a11.25,11.25,0,0,1,5.12-11.36,19.2,19.2,0,0,1,9.25-2.95,31.09,31.09,0,0,1,14.78,2.17c.73.3,1.4.72,2.33,1.21-1.13,2.73-2.22,5.34-3.42,8.23l-2.48-1a19.09,19.09,0,0,0-11-1.59A5.83,5.83,0,0,0,522,19.51a2.27,2.27,0,0,0,.44,3.94,27.9,27.9,0,0,0,4.53,1.48c2.46.68,4.95,1.25,7.42,1.91a15.49,15.49,0,0,1,2.24.83c8.7,3.83,7.48,13.57,3,17.68A15.26,15.26,0,0,1,533,49a32.22,32.22,0,0,1-21.73-2.18C510.61,46.54,510,46.12,509.11,45.58Z"></path><path class="cls-1" d="M746.55,45.61l3.67-8.21,2.27,1.07c4.19,2,8.54,3.14,13.22,2.43a7.52,7.52,0,0,0,.95-.15c1.62-.4,2.52-1.24,2.64-2.41s-.49-2.17-2.19-2.74c-2.19-.73-4.46-1.23-6.68-1.86-2.07-.58-4.18-1.09-6.19-1.84-9.35-3.51-8.28-14.43-3-18.49a17.23,17.23,0,0,1,5.42-2.94,29.22,29.22,0,0,1,21,1.61,11.61,11.61,0,0,1,1.2.77c-1.1,2.66-2.18,5.28-3.38,8.17-.86-.36-1.56-.63-2.26-.94a20,20,0,0,0-10.73-1.79,9.35,9.35,0,0,0-1.18.19c-1.71.45-2.74,1.54-2.75,2.89,0,1.62,1.15,2.22,2.4,2.58,2.46.7,4.95,1.25,7.41,1.92a42.4,42.4,0,0,1,5,1.53c3.57,1.47,6.36,3.76,6.92,7.87.62,4.55-.74,8.37-4.52,11.16a18.42,18.42,0,0,1-9.12,3.31,33.52,33.52,0,0,1-17.54-2.69C748.33,46.7,747.6,46.21,746.55,45.61Z"></path><path class="cls-1" d="M555.37,78.3v5.64h16v7.94c-5.24.44-10.55-.08-16,.3V98.3h18.81v8.17H545c-.53-2-.55-34.2,0-36.46h28.52V78c-.88.07-1.72.18-2.56.19H558C557.18,78.16,556.33,78.25,555.37,78.3Z"></path><path class="cls-1" d="M641.26,97v9.08c-1.78.6-7.14.73-10.34.32-.52-1.77-.6-33.78-.06-36.37a16.37,16.37,0,0,1,1.79-.19c5,0,10.06,0,15.1,0a20.09,20.09,0,0,1,8.17,1.54c5.2,2.26,7.89,6.46,7.87,12.26s-2.77,9.76-8,11.86a26.29,26.29,0,0,1-7,1.45C646.43,97.22,644,97,641.26,97Zm0-8.19a77.67,77.67,0,0,0,8.08-.56c2.49-.42,3.59-2.09,3.64-4.59.06-2.68-1-4.34-3.46-5-2.71-.75-5.45-.36-8.26-.27Z"></path><path class="cls-1" d="M402.93,69.86l16.28,36.74c-3.7,0-6.94.05-10.19,0a2,2,0,0,1-1.31-1.09,43.72,43.72,0,0,1-1.83-4.42,2,2,0,0,0-2.1-1.52c-4.07,0-8.15,0-12.22,0a2,2,0,0,0-2.15,1.46c-.68,1.86-1.49,3.68-2.25,5.53H376.51c.29-.83.47-1.5.74-2.13,4.8-10.87,9.63-21.73,14.37-32.62a2.76,2.76,0,0,1,3.08-1.93C397.4,69.94,400.11,69.86,402.93,69.86ZM402,91.49c-1.46-3.63-2.83-7-4.41-11-1.53,4.06-3.1,7.39-4.27,11Z"></path><path class="cls-1" d="M578.05,106.48c0-2.08-.12-4,.06-5.87a4.78,4.78,0,0,1,1.26-2.21q7.54-9,15.13-18l1.71-2c-6.06-.18-11.73,0-17.54-.14v-8c1.76-.51,28.57-.64,31.63-.11,0,1.9.11,3.88-.06,5.83A4.34,4.34,0,0,1,609,78q-7.54,9-15.12,18c-.5.6-1,1.23-1.74,2.2h18.67v8.33Z"></path><path class="cls-1" d="M344.27,103.36l3.46-7.78,2.23,1c4,1.86,8.1,2.92,12.53,2.21a6.38,6.38,0,0,0,1.17-.23c1-.38,1.89-.9,2-2.14a2.26,2.26,0,0,0-1.79-2.5c-2.05-.64-4.14-1.17-6.21-1.76s-4-1-6-1.74c-3.58-1.37-6.14-3.78-6.63-7.77a10.55,10.55,0,0,1,4.3-10.3,16.77,16.77,0,0,1,8.21-3.07,29.59,29.59,0,0,1,14.81,1.84,26,26,0,0,1,2.36,1.22l-3.09,7.5c-3-.84-5.61-1.77-8.33-2.26a18.63,18.63,0,0,0-5.2.22,3.3,3.3,0,0,0-1.67.85,2.14,2.14,0,0,0,.41,3.74,29.28,29.28,0,0,0,4.54,1.45c2.46.69,5,1.17,7.39,2,4.06,1.37,7,3.86,7.42,8.44.4,4.79-1.69,8.32-5.8,10.7a19.51,19.51,0,0,1-9.2,2.38,31.66,31.66,0,0,1-13.36-2.24C346.67,104.69,345.58,104,344.27,103.36Z"></path><path class="cls-1" d="M491.61,94.34l6.61,6a13,13,0,0,1-4.66,4.2c-7.91,4.19-15.82,4.15-23.4-.67-6.51-4.15-9.31-11.91-7.64-19.95a18.91,18.91,0,0,1,15.07-14.33A23.3,23.3,0,0,1,491.65,71a15.31,15.31,0,0,1,6.47,5.17c-1,1-2.1,2-3.2,3s-2.13,1.91-3.31,2.95c-.78-.67-1.47-1.31-2.2-1.89-5.54-4.38-13.62-2.35-15.9,4a11.59,11.59,0,0,0,0,8c2.17,6.16,10,8.36,15.51,4.35C489.83,96,490.58,95.23,491.61,94.34Z"></path><path class="cls-1" d="M708.05,19H696.32c0,10.09,0,19.93,0,29.94H685.08c-.12-9.88,0-19.73-.08-29.89H673.25V10.49c1.7-.49,31.83-.62,34.8-.12Z"></path><path class="cls-1" d="M366.7,49H355.51c-.22-2.44-.08-4.88-.1-7.32s0-5,0-7.42v-15c-4-.51-7.79.05-11.76-.37V10.23H378.5a73.89,73.89,0,0,1,0,8.79H366.7Z"></path><path class="cls-1" d="M27.9,5.35a11.25,11.25,0,0,1-.09,1.51Q25.71,16.93,23.58,27c-.38,1.76-.43,1.83-2.2,1.84q-9.94,0-19.9,0A8.93,8.93,0,0,1,0,28.59a8.61,8.61,0,0,1,0-1.69c1.38-6.72,2.8-13.43,4.17-20.15.22-1.1.63-1.71,1.85-1.7,7,0,13.9,0,20.85,0A5.05,5.05,0,0,1,27.9,5.35Z"></path><path class="cls-1" d="M724,98.24h17.31v8c-1.75.49-22.71.68-27.47.25-.55-1.62-.74-32.63-.17-36.58,3.32-.08,6.69-.05,10.33,0Z"></path><path class="cls-1" d="M303.32,115.65h-3.76V.18c.67-.07,1.2-.17,1.74-.18s1.24.07,2,.11Z"></path><path class="cls-1" d="M392.87,66.49c2.05-2.32,4.08-4.66,6.18-6.94a2.27,2.27,0,0,1,1.48-.58c2.79,0,5.57,0,8.72,0a8.16,8.16,0,0,1-.91,1.25c-2.47,2-4.92,4.08-7.46,6a5.31,5.31,0,0,1-2.59.94c-1.71.14-3.45,0-5.17,0Z"></path></g></g></svg>